<?xml version="1.0" encoding="UTF-8" standalone="no"?>
<svg width="1024px" height="1024px" viewBox="0 0 1024 1024" version="1.1" xmlns="http://www.w3.org/2000/svg" xmlns:xlink="http://www.w3.org/1999/xlink" xmlns:sketch="http://www.bohemiancoding.com/sketch/ns">
    <!-- Generator: Sketch 3.3.3 (12081) - http://www.bohemiancoding.com/sketch -->
    <title>Storefront Design</title>
    <desc>Created with Sketch.</desc>
    <defs></defs>
    <g id="Page-1" stroke="none" stroke-width="1" fill="none" fill-rule="evenodd" sketch:type="MSPage">
        <path d="M357.009067,0 L666.990933,0 C769.792,0 821.179733,0 876.5184,17.4933333 C936.9344,39.4837333 984.516267,87.0656 1006.50667,147.4816 C1024,202.811733 1024,254.216533 1024,357.009067 L1024,666.990933 C1024,769.792 1024,821.179733 1006.50667,876.5184 C984.516267,936.9344 936.9344,984.516267 876.5184,1006.49813 C821.179733,1024 769.792,1024 666.990933,1024 L357.009067,1024 C254.208,1024 202.811733,1024 147.4816,1006.49813 C87.0656,984.516267 39.4837333,936.9344 17.4933333,876.5184 C0,821.179733 0,769.792 0,666.990933 L0,357.009067 C0,254.216533 0,202.811733 17.4933333,147.4816 C39.4837333,87.0656 87.0656,39.4837333 147.4816,17.4933333 C202.811733,0 254.208,0 357.009067,0 L357.009067,0" id="Icon-Shape-Copy" fill="#B28484" sketch:type="MSShapeGroup"></path>
        <g id="Store-Icon" sketch:type="MSLayerGroup" transform="translate(255.000000, 302.000000)" fill="#FFFFFF">
            <path d="M3.02301303,173.571325 C-3.10683039,189.552202 1.9892655,203.577377 1.9892655,203.577377 C8.35938538,220.144965 15.9532388,222.849421 31.9064776,222.849421 C37.2596134,222.849421 42.2607163,221.703939 46.5577533,219.759412 L46.5577533,419.078947 L257.654585,419.078947 L257.654585,298.194228 L389.571945,298.194228 L389.571945,419.078947 L468.74583,419.078947 L468.74583,219.759412 C473.05963,221.709526 478.049557,222.849421 483.413869,222.849421 C499.355932,222.849421 509.844278,209.640053 512.286158,200.755579 C512.286158,200.755579 517.834867,184.025947 512.286158,173.571325 C502.859498,155.81914 431.687378,0.206745614 431.687378,0.206745614 L83.616205,0.206745614 L3.02301303,173.571325 Z M60.92405,200.744404 L60.92405,198.196404 L60.7899422,198.196404 L60.7899422,173.571325 L115.366224,34.1856667 L158.956842,34.1856667 L116.003236,173.571325 L116.003236,200.755579 L116.003236,200.766754 C115.99206,212.95357 103.665319,222.838246 88.4608488,222.838246 C73.2563785,222.838246 60.92405,212.95357 60.92405,200.744404 L60.92405,200.744404 Z M165.220793,343.879421 L93.8307481,343.879421 L93.8307481,272.496307 L165.215205,272.496307 L165.215205,343.879421 L165.220793,343.879421 Z M228.843762,173.571325 L228.843762,198.196404 L228.843762,200.744404 C228.843762,212.947982 216.511434,222.838246 201.312551,222.838246 C186.091318,222.838246 173.764577,212.95357 173.764577,200.744404 L173.764577,198.196404 L173.764577,173.571325 L196.579664,34.1856667 L240.041763,34.1856667 L228.843762,173.571325 L228.843762,173.571325 Z M314.14749,222.838246 C298.94302,222.838246 286.616279,212.95357 286.616279,200.744404 L286.616279,198.196404 L286.616279,173.571325 L275.407104,34.1856667 L318.735094,34.1856667 L341.539006,173.571325 L341.539006,200.755579 C341.539006,201.118781 341.600472,201.493158 341.622823,201.850772 C340.890818,213.534693 328.882584,222.838246 314.14749,222.838246 L314.14749,222.838246 Z M454.524816,198.196404 L454.385121,198.196404 L454.385121,200.744404 C454.385121,212.947982 442.05838,222.838246 426.842734,222.838246 C411.638264,222.838246 399.311523,212.95357 399.311523,200.744404 L399.311523,198.196404 L399.311523,173.571325 L356.352329,34.1856667 L399.948535,34.1856667 L454.530404,173.571325 L454.530404,198.196404 L454.524816,198.196404 Z" id="Shape" sketch:type="MSShapeGroup"></path>
        </g>
    </g>
</svg>